<?xml version="1.0" encoding="UTF-8"?>
<!-- Generator: Adobe Illustrator 17.0.0, SVG Export Plug-In . SVG Version: 6.00 Build 0)  -->
<!DOCTYPE svg PUBLIC "-//W3C//DTD SVG 1.1//EN" "http://www.w3.org/Graphics/SVG/1.1/DTD/svg11.dtd">
<svg version="1.1" id="Layer_1" xmlns="http://www.w3.org/2000/svg" xmlns:xlink="http://www.w3.org/1999/xlink" x="0px" y="0px" width="145px" height="50px" viewBox="0 0 145 50" enable-background="new 0 0 145 50" xml:space="preserve">
<g>
	<g>
		<g>
			<path fill="#FFFFFF" d="M56.438,22.561c-0.057,0.791-0.235,1.517-0.534,2.179s-0.712,1.23-1.239,1.703     c-0.527,0.474-1.166,0.844-1.917,1.11c-0.751,0.268-1.607,0.4-2.568,0.4c-0.997,0-1.892-0.172-2.686-0.518     c-0.794-0.345-1.467-0.842-2.019-1.489c-0.552-0.648-0.976-1.433-1.271-2.355c-0.296-0.922-0.443-1.956-0.443-3.103v-1.025     c0-1.146,0.153-2.182,0.459-3.108c0.306-0.925,0.739-1.712,1.298-2.36c0.559-0.647,1.237-1.146,2.034-1.495     s1.688-0.523,2.67-0.523c0.968,0,1.824,0.137,2.568,0.411s1.376,0.655,1.896,1.143s0.926,1.068,1.218,1.741     s0.477,1.404,0.555,2.195h-3.204c-0.036-0.463-0.116-0.872-0.24-1.229c-0.125-0.355-0.305-0.655-0.54-0.897     c-0.235-0.242-0.538-0.425-0.908-0.55s-0.819-0.187-1.346-0.187c-1.082,0-1.889,0.394-2.419,1.18     c-0.53,0.786-0.795,2.006-0.795,3.658v1.046c0,0.805,0.059,1.51,0.176,2.115s0.302,1.11,0.555,1.517     c0.252,0.406,0.58,0.71,0.982,0.913c0.402,0.203,0.888,0.304,1.458,0.304c0.505,0,0.941-0.057,1.308-0.171     s0.673-0.287,0.918-0.518c0.246-0.231,0.436-0.521,0.571-0.87s0.221-0.755,0.256-1.218L56.438,22.561L56.438,22.561z"/>
			<path fill="#FFFFFF" d="M64.298,22.048h-2.552v5.692h-3.204V12.191h5.778c0.897,0,1.701,0.102,2.414,0.305     c0.712,0.203,1.313,0.502,1.805,0.897s0.869,0.885,1.132,1.468c0.264,0.584,0.396,1.26,0.396,2.029     c0,0.569-0.064,1.08-0.192,1.532s-0.313,0.854-0.555,1.207c-0.242,0.352-0.534,0.66-0.876,0.924     c-0.342,0.263-0.726,0.491-1.153,0.683l3.364,6.354v0.149h-3.438L64.298,22.048z M61.746,19.453h2.584     c0.42,0,0.788-0.055,1.105-0.166s0.581-0.267,0.791-0.47s0.368-0.445,0.475-0.726s0.16-0.596,0.16-0.945     c0-0.733-0.208-1.31-0.625-1.73s-1.056-0.63-1.917-0.63h-2.574L61.746,19.453L61.746,19.453z"/>
			<path fill="#FFFFFF" d="M81.855,21.001h-6.151v4.165h7.22v2.574H72.5V12.191h10.402v2.595h-7.198v3.706h6.151V21.001z"/>
			<path fill="#FFFFFF" d="M93.581,24.537h-5.617l-1.068,3.204H83.49l5.788-15.549h2.969l5.82,15.549H94.66L93.581,24.537z      M88.829,21.941h3.887l-1.954-5.82L88.829,21.941z"/>
			<path fill="#FFFFFF" d="M109.942,14.786h-4.763V27.74h-3.204V14.786h-4.699v-2.595h12.666V14.786z"/>
			<path fill="#FFFFFF" d="M115.175,27.74h-3.203V12.191h3.203V27.74z"/>
			<path fill="#FFFFFF" d="M123.89,23.885l3.524-11.694h3.566l-5.414,15.549h-3.343l-5.394-15.549h3.557L123.89,23.885z"/>
			<path fill="#FFFFFF" d="M141.799,21.001h-6.151v4.165h7.22v2.574h-10.424V12.191h10.402v2.595h-7.198v3.706h6.151L141.799,21.001     L141.799,21.001z"/>
		</g>
		<g>
			<path fill="#FFFFFF" d="M47.907,34.679c0-0.148-0.023-0.279-0.071-0.393c-0.047-0.112-0.131-0.217-0.251-0.311     c-0.121-0.095-0.283-0.184-0.487-0.266c-0.205-0.083-0.463-0.168-0.777-0.255c-0.329-0.09-0.627-0.192-0.894-0.308     c-0.267-0.114-0.494-0.246-0.681-0.396s-0.332-0.32-0.432-0.512c-0.101-0.192-0.151-0.411-0.151-0.658     c0-0.246,0.054-0.475,0.162-0.686c0.108-0.21,0.262-0.394,0.459-0.549c0.198-0.155,0.436-0.276,0.713-0.363     s0.587-0.131,0.928-0.131c0.375,0,0.709,0.054,1.001,0.161s0.539,0.25,0.738,0.427s0.352,0.382,0.455,0.614     s0.155,0.472,0.155,0.719h-0.882c0-0.178-0.03-0.342-0.089-0.492c-0.059-0.151-0.15-0.282-0.272-0.393     c-0.122-0.11-0.274-0.195-0.457-0.257c-0.183-0.061-0.399-0.091-0.649-0.091c-0.235,0-0.439,0.025-0.613,0.078     c-0.173,0.052-0.317,0.124-0.43,0.216c-0.113,0.091-0.197,0.199-0.251,0.324s-0.082,0.261-0.082,0.409     c0,0.134,0.029,0.256,0.089,0.366s0.152,0.212,0.277,0.305s0.286,0.179,0.482,0.257s0.432,0.153,0.706,0.227     c0.378,0.102,0.704,0.214,0.979,0.337c0.274,0.124,0.501,0.264,0.679,0.421c0.178,0.156,0.311,0.332,0.398,0.526     c0.086,0.194,0.13,0.415,0.13,0.662c0,0.258-0.055,0.492-0.165,0.701c-0.109,0.209-0.266,0.388-0.469,0.535     c-0.203,0.148-0.446,0.263-0.731,0.342c-0.285,0.08-0.603,0.12-0.953,0.12c-0.205,0-0.409-0.019-0.613-0.055     s-0.4-0.091-0.587-0.163s-0.361-0.162-0.521-0.27s-0.299-0.232-0.418-0.375s-0.212-0.302-0.279-0.479     c-0.067-0.178-0.101-0.372-0.101-0.584h0.882c0,0.218,0.045,0.404,0.135,0.56c0.09,0.155,0.21,0.284,0.361,0.386     s0.325,0.176,0.521,0.224s0.403,0.072,0.62,0.072c0.463,0,0.818-0.09,1.065-0.271C47.784,35.234,47.907,34.989,47.907,34.679z"/>
			<path fill="#FFFFFF" d="M56.019,33.315c0,0.477-0.063,0.902-0.189,1.278s-0.306,0.696-0.537,0.96     c-0.232,0.265-0.512,0.466-0.842,0.605c-0.329,0.14-0.696,0.209-1.102,0.209c-0.394,0-0.754-0.069-1.084-0.209     c-0.329-0.14-0.612-0.341-0.85-0.605s-0.422-0.584-0.553-0.96s-0.197-0.802-0.197-1.278v-0.4c0-0.474,0.065-0.899,0.197-1.278     c0.131-0.379,0.314-0.7,0.548-0.965c0.235-0.264,0.517-0.466,0.846-0.607c0.329-0.141,0.69-0.211,1.083-0.211     c0.405,0,0.773,0.07,1.104,0.211c0.331,0.142,0.613,0.344,0.846,0.607c0.233,0.265,0.413,0.586,0.54,0.965     c0.127,0.379,0.189,0.805,0.189,1.278L56.019,33.315L56.019,33.315z M55.146,32.906c0-0.377-0.041-0.711-0.121-1.002     c-0.081-0.29-0.199-0.534-0.354-0.731s-0.345-0.347-0.569-0.448s-0.478-0.152-0.761-0.152c-0.271,0-0.518,0.051-0.741,0.152     s-0.412,0.251-0.569,0.448s-0.278,0.441-0.363,0.731c-0.085,0.291-0.128,0.625-0.128,1.002v0.409c0,0.381,0.043,0.716,0.13,1.006     s0.21,0.535,0.368,0.734c0.159,0.198,0.349,0.349,0.572,0.45c0.222,0.102,0.469,0.152,0.741,0.152     c0.286,0,0.541-0.051,0.764-0.152c0.222-0.102,0.411-0.252,0.564-0.45c0.154-0.199,0.271-0.444,0.35-0.734     c0.08-0.29,0.119-0.625,0.119-1.006v-0.409H55.146z"/>
			<path fill="#FFFFFF" d="M61.99,33.481h-2.794v2.8h-0.877V29.94h4.124v0.688h-3.247v2.168h2.794V33.481z"/>
			<path fill="#FFFFFF" d="M69.169,30.629h-2.14v5.652h-0.873v-5.652h-2.135V29.94h5.148V30.629z"/>
			<path fill="#FFFFFF" d="M78.676,30.629h-2.141v5.652h-0.873v-5.652h-2.135V29.94h5.148L78.676,30.629L78.676,30.629z"/>
			<path fill="#FFFFFF" d="M84.409,33.351h-2.885v2.247h3.352v0.684h-4.229V29.94h4.184v0.688h-3.306v2.038h2.885L84.409,33.351     L84.409,33.351z"/>
			<path fill="#FFFFFF" d="M91.85,34.27c-0.037,0.299-0.114,0.576-0.231,0.834c-0.117,0.257-0.279,0.479-0.487,0.666     c-0.207,0.188-0.46,0.334-0.759,0.439c-0.299,0.106-0.647,0.159-1.047,0.159c-0.394,0-0.75-0.069-1.07-0.209     c-0.319-0.14-0.594-0.338-0.82-0.595c-0.228-0.257-0.402-0.565-0.525-0.925c-0.124-0.36-0.186-0.763-0.186-1.207v-0.636     c0-0.443,0.063-0.847,0.188-1.208s0.303-0.671,0.535-0.928c0.231-0.257,0.513-0.455,0.844-0.597     c0.33-0.141,0.701-0.211,1.113-0.211c0.375,0,0.707,0.053,0.996,0.157c0.29,0.104,0.536,0.25,0.738,0.438     c0.203,0.187,0.364,0.41,0.482,0.67c0.119,0.261,0.195,0.547,0.229,0.86h-0.883c-0.033-0.221-0.086-0.419-0.155-0.597     c-0.07-0.177-0.167-0.328-0.291-0.453c-0.123-0.124-0.276-0.22-0.459-0.287c-0.183-0.066-0.402-0.1-0.658-0.1     c-0.296,0-0.556,0.054-0.78,0.163c-0.224,0.108-0.411,0.261-0.563,0.457c-0.15,0.196-0.264,0.433-0.34,0.71     s-0.114,0.583-0.114,0.917v0.644c0,0.312,0.034,0.603,0.103,0.876c0.068,0.272,0.173,0.512,0.313,0.716     c0.14,0.205,0.318,0.366,0.534,0.483c0.217,0.118,0.473,0.177,0.769,0.177c0.28,0,0.517-0.032,0.709-0.096     c0.191-0.064,0.351-0.156,0.478-0.276c0.127-0.121,0.225-0.269,0.295-0.444s0.123-0.375,0.16-0.599h0.882V34.27z"/>
			<path fill="#FFFFFF" d="M99.146,36.281h-0.882V33.35h-3.356v2.931H94.03V29.94h0.878v2.727h3.356V29.94h0.882V36.281z"/>
			<path fill="#FFFFFF" d="M106.806,36.281h-0.883l-3.352-4.886v4.886h-0.882V29.94h0.882l3.36,4.908V29.94h0.874L106.806,36.281     L106.806,36.281z"/>
			<path fill="#FFFFFF" d="M114.469,33.315c0,0.477-0.063,0.902-0.189,1.278c-0.127,0.376-0.306,0.696-0.537,0.96     c-0.232,0.265-0.513,0.466-0.842,0.605s-0.696,0.209-1.102,0.209c-0.394,0-0.755-0.069-1.084-0.209s-0.612-0.341-0.851-0.605     c-0.237-0.264-0.422-0.584-0.553-0.96c-0.132-0.376-0.197-0.802-0.197-1.278v-0.4c0-0.474,0.065-0.899,0.197-1.278     c0.131-0.379,0.313-0.7,0.548-0.965c0.235-0.264,0.517-0.466,0.847-0.607c0.329-0.141,0.69-0.211,1.083-0.211     c0.405,0,0.773,0.07,1.104,0.211c0.331,0.142,0.612,0.344,0.846,0.607c0.233,0.265,0.413,0.586,0.54,0.965     c0.126,0.379,0.189,0.805,0.189,1.278v0.4H114.469z M113.596,32.906c0-0.377-0.041-0.711-0.121-1.002     c-0.081-0.29-0.199-0.534-0.354-0.731s-0.346-0.347-0.569-0.448c-0.225-0.102-0.478-0.152-0.762-0.152     c-0.271,0-0.518,0.051-0.74,0.152s-0.412,0.251-0.569,0.448s-0.278,0.441-0.363,0.731c-0.086,0.291-0.128,0.625-0.128,1.002     v0.409c0,0.381,0.043,0.716,0.13,1.006s0.21,0.535,0.368,0.734c0.158,0.198,0.349,0.349,0.571,0.45s0.47,0.152,0.741,0.152     c0.286,0,0.541-0.051,0.764-0.152c0.222-0.102,0.41-0.252,0.564-0.45c0.153-0.199,0.271-0.444,0.35-0.734     s0.119-0.625,0.119-1.006L113.596,32.906L113.596,32.906z"/>
			<path fill="#FFFFFF" d="M117.651,35.598h3.155v0.684h-4.037V29.94h0.882V35.598z"/>
			<path fill="#FFFFFF" d="M127.614,33.315c0,0.477-0.063,0.902-0.189,1.278s-0.306,0.696-0.537,0.96     c-0.231,0.265-0.512,0.466-0.842,0.605c-0.329,0.14-0.696,0.209-1.102,0.209c-0.394,0-0.754-0.069-1.084-0.209     c-0.329-0.14-0.612-0.341-0.85-0.605s-0.423-0.584-0.554-0.96s-0.196-0.802-0.196-1.278v-0.4c0-0.474,0.065-0.899,0.196-1.278     s0.314-0.7,0.549-0.965c0.234-0.264,0.517-0.466,0.846-0.607s0.69-0.211,1.084-0.211c0.405,0,0.773,0.07,1.104,0.211     c0.331,0.142,0.613,0.344,0.847,0.607c0.232,0.265,0.413,0.586,0.539,0.965c0.127,0.379,0.189,0.805,0.189,1.278V33.315z      M126.741,32.906c0-0.377-0.04-0.711-0.121-1.002c-0.081-0.29-0.199-0.534-0.354-0.731s-0.345-0.347-0.569-0.448     c-0.224-0.102-0.478-0.152-0.761-0.152c-0.271,0-0.519,0.051-0.741,0.152s-0.412,0.251-0.569,0.448     c-0.156,0.197-0.278,0.441-0.363,0.731c-0.085,0.291-0.128,0.625-0.128,1.002v0.409c0,0.381,0.043,0.716,0.13,1.006     s0.21,0.535,0.368,0.734c0.159,0.198,0.35,0.349,0.572,0.45c0.222,0.102,0.469,0.152,0.74,0.152c0.286,0,0.541-0.051,0.764-0.152     s0.411-0.252,0.564-0.45c0.154-0.199,0.271-0.444,0.35-0.734c0.08-0.29,0.119-0.625,0.119-1.006L126.741,32.906L126.741,32.906z"/>
			<path fill="#FFFFFF" d="M134.83,35.449c-0.064,0.087-0.152,0.184-0.266,0.29c-0.112,0.105-0.261,0.205-0.445,0.298     s-0.411,0.171-0.68,0.235c-0.268,0.063-0.59,0.096-0.965,0.096c-0.405,0-0.777-0.068-1.117-0.205     c-0.34-0.136-0.633-0.333-0.878-0.59c-0.246-0.257-0.437-0.571-0.574-0.944c-0.137-0.373-0.206-0.797-0.206-1.27v-0.497     c0-0.473,0.06-0.896,0.177-1.267c0.117-0.372,0.289-0.687,0.517-0.945c0.227-0.258,0.507-0.456,0.839-0.592     c0.332-0.137,0.713-0.205,1.143-0.205c0.382,0,0.715,0.049,1.002,0.146c0.286,0.098,0.53,0.232,0.731,0.405     s0.361,0.378,0.48,0.616c0.118,0.238,0.199,0.498,0.242,0.779h-0.878c-0.034-0.171-0.086-0.333-0.158-0.485     c-0.071-0.152-0.17-0.286-0.295-0.4c-0.125-0.115-0.278-0.205-0.462-0.272c-0.183-0.066-0.402-0.1-0.658-0.1     c-0.311,0-0.579,0.054-0.805,0.161s-0.411,0.261-0.558,0.461s-0.256,0.443-0.327,0.728s-0.107,0.605-0.107,0.962v0.506     c0,0.365,0.046,0.692,0.138,0.979c0.091,0.287,0.22,0.531,0.386,0.731s0.366,0.353,0.6,0.457     c0.232,0.104,0.491,0.157,0.774,0.157c0.238,0,0.439-0.016,0.606-0.046c0.166-0.03,0.306-0.068,0.42-0.113     s0.207-0.094,0.277-0.148c0.069-0.053,0.128-0.104,0.173-0.149v-1.424h-1.54v-0.68h2.414L134.83,35.449L134.83,35.449z"/>
			<path fill="#FFFFFF" d="M139.307,33.124l1.737-3.184h0.997l-2.296,3.976v2.365h-0.878v-2.365l-2.295-3.976h1.006L139.307,33.124z     "/>
		</g>
	</g>
	<g>
		<g>
			<path fill="#FFFFFF" d="M24.975,40.193c-3.289,0-6.331-1.049-8.818-2.825c-1.826,2.141-4.117,3.873-6.717,5.04     c4.126,3.684,9.568,5.925,15.535,5.925c6.555,0,12.478-2.705,16.717-7.057l-5.759-5.759     C33.169,38.398,29.283,40.193,24.975,40.193z"/>
		</g>
		<g>
			<path fill="#FFFFFF" d="M24.975,1.667c-5.967,0-11.409,2.241-15.535,5.925c2.6,1.167,4.891,2.899,6.717,5.04     c2.487-1.776,5.529-2.825,8.818-2.825c4.07,0,7.762,1.603,10.49,4.208l5.759-5.759C37.023,4.178,31.293,1.667,24.975,1.667z"/>
		</g>
		<g>
			<path fill="#FFFFFF" d="M14.311,35.819C11.516,33.063,9.782,29.235,9.782,25s1.734-8.063,4.529-10.819     c-1.793-2.097-4.095-3.743-6.717-4.747c-3.7,4.13-5.952,9.585-5.952,15.566s2.252,11.436,5.952,15.565     C10.216,39.562,12.519,37.916,14.311,35.819z"/>
		</g>
	</g>
	<g>
		<circle fill="#FFFFFF" cx="25.354" cy="25.167" r="3.961"/>
	</g>
</g>
</svg>